<svg xmlns="http://www.w3.org/2000/svg" xmlns:xlink="http://www.w3.org/1999/xlink" xmlns:sketch="http://www.bohemiancoding.com/sketch/ns" viewBox="0 0 93 125" version="1.1" x="0px" y="0px"><title>Line</title><desc>Created with Sketch.</desc><g stroke="none" stroke-width="1" fill="none" fill-rule="evenodd" sketch:type="MSPage"><path d="M46.5826882,10.8051753 C46.5977138,8.71803418 46.5275154,4.30059473 48.1521438,2.32007209 C53.094119,-3.70450182 56.8716703,3.9074048 56.8716703,3.9074048 C56.8716703,3.9074048 60.1237603,-0.551820892 68.3058877,5.5490067 C70.2543721,7.00185224 71.8106591,8.12312668 72.8727114,9.43260387 C76.2704572,13.6219181 75.6905377,17.0449945 75.6905377,17.0449945 C75.6905377,17.0449945 77.7333275,17.5652559 79.2872257,20.1033149 C80.8411239,22.641374 80.177333,23.8616643 80.7352861,24.8976239 C81.4860523,26.2915826 83.7136787,28.2892599 84.3620681,29.9232457 C84.8217901,31.0817765 83.8458836,32.1871453 83.8458836,32.1871453 C83.8458836,32.1871453 86.4969359,32.6162737 88.1224855,36.1857631 C89.0974288,38.3266081 89.1160477,43.4420113 89.6159412,45.1107943 C90.2495571,47.2259799 91.8852005,51.4686433 92.231784,54.216381 C92.5756791,56.9428055 91.6329736,58.1826101 91.6329736,58.1826101 C91.6329736,58.1826101 93.4454718,61.7346657 92.7025694,64.7889063 C91.959667,67.8431469 90.1815978,69.0535192 90.1815978,69.0535192 C90.1815978,69.0535192 90.4929892,73.2854863 89.6159411,74.4792822 C88.7388931,75.6730781 86.9044622,76.3453372 86.9044622,76.3453372 C86.9044622,76.3453372 86.6075629,79.4372741 85.3342425,80.8557957 C83.8149843,82.5483002 78.5267264,85.6784154 78.5267264,85.6784154 C78.5267264,85.6784154 80.9699133,90.118491 74.3294422,92.7583029 C67.6889711,95.3981147 65.248334,93.927361 65.248334,93.927361 C65.248334,93.927361 66.6685951,96.6278697 62.2769786,98.3488128 C57.885362,100.069756 51.7536762,98.9879214 51.7536762,98.9879214 C51.7536762,98.9879214 51.6200437,99.7239349 49.8860918,99.7239349 C48.15214,99.7239349 46.5826877,97.3322666 46.5826877,97.3322666 C46.5826877,97.3322666 46.7963613,93.785163 46.8744414,90.4120287 C46.9163949,88.5995944 46.7346567,86.9350826 46.8744414,85.6784161 C46.9911126,84.6295397 46.5446047,82.7190544 46.8744414,81.5038287 C47.363497,79.7019884 48.6514912,78.7336932 48.6514912,78.7336932 C48.6514912,78.7336932 46.5826882,75.3287933 46.5826882,67.8862491 C46.5826882,60.4437049 50.3698834,60.1800051 50.3698834,60.1800051 C50.3698834,60.1800051 48.15214,56.0000662 48.15214,53.0570182 C48.15214,50.1139702 49.8860914,46.7228367 49.8860914,46.7228367 C49.8860914,46.7228367 47.1661946,44.8697882 46.8744414,41.2514224 C46.5826882,37.6330566 49.0008823,33.0585839 49.0008823,33.0585839 C49.0008823,33.0585839 46.2909349,31.8956472 46.5826882,24.8976239 C46.8744414,17.8996005 48.1521424,16.5793099 48.1521424,16.5793099 C48.1521424,16.5793099 46.5520071,15.0669319 46.5826882,10.8051753 Z M53.8035931,86.8082712 C54.3592634,86.1161523 54.498789,84.5853709 54.498789,84.5853709 C54.498789,84.5853709 54.4551775,83.268546 52.7851465,82.1018022 C51.1151155,80.9350585 50.0924135,80.4966192 49.1228939,80.829577 C47.9122473,81.245344 48.058111,83.5684218 48.058111,83.5684218 C48.058111,83.5684218 48.6301195,86.1678302 48.6230774,87.4890641 C48.6171496,88.6012339 48.0192015,90.8686329 48.0192015,90.8686329 C48.0192015,90.8686329 47.3250261,93.2821249 47.4125819,94.412717 C47.4917296,95.434737 47.794355,96.3802498 48.5193122,97.326469 C49.2442694,98.2726881 49.6666076,98.2675345 50.3969812,98.3079755 C51.1273548,98.3484164 50.9263888,97.4548281 51.0288802,97.0814108 C51.1313716,96.7079935 51.5094016,95.690129 52.0080352,95.3760961 C52.6480091,94.9730489 54.4447028,94.9301706 54.4447028,94.9301706 C54.4447028,94.9301706 57.3754064,95.1246688 57.9417542,93.9667918 C58.5081021,92.8089148 56.2096832,92.4590787 55.7828713,91.6852317 C55.3560593,90.9113847 55.7685962,90.5538208 55.476867,89.4977375 C55.25374,88.6899994 54.8074582,87.924275 54.4447029,87.7547972 C53.9201914,87.5097475 52.008035,89.9535597 52.008035,89.9535597 C52.008035,89.9535597 50.0043592,91.5489371 49.6666079,91.0837082 C49.3288565,90.6184794 51.3642796,88.4895797 51.3642796,88.4895797 C51.3642796,88.4895797 53.314427,87.4175553 53.8035931,86.8082712 Z M88.1940843,73.2996542 C87.4453417,74.2017564 87.0105184,74.4158789 86.3631958,74.4158794 C85.7158732,74.4158799 84.9504545,73.9494717 84.6090646,74.4158799 C84.2676747,74.8822881 84.809492,75.5049462 85.0072636,75.7718116 C85.2050351,76.0386769 85.5458818,77.7141102 84.4486026,79.2079324 C84.0332871,79.7733376 82.6636587,81.1352091 81.4301306,82.0971815 C80.3776437,82.9179681 79.4063968,83.3967611 79.4063968,83.3967611 C79.4063968,83.3967611 77.5461169,84.4740815 77.168356,85.0177809 C76.9006346,85.4031039 77.4699498,86.1838283 77.4699498,86.1838283 C77.4699498,86.1838283 78.6457999,89.383067 72.8482256,91.5223493 C67.0506513,93.6616315 65.3759445,92.0221176 65.3759445,92.0221176 C65.3759445,92.0221176 64.693136,91.2725423 64.1440472,90.3413216 C63.3940818,89.0694266 62.6144632,87.5469317 61.5973915,87.9445305 C60.4910565,88.3770245 61.7943173,90.359562 62.5838179,91.7906298 C63.0515144,92.6383878 64.1318815,94.5718312 63.0481765,95.9132262 C61.9644714,97.2546211 59.2096585,97.418167 59.2096585,97.418167 C59.2096585,97.418167 52.0700053,98.4144598 52.7959901,97.2275277 C53.5219748,96.0405957 59.1230716,96.0648253 59.1230716,96.0648253 C59.1230716,96.0648253 59.8356686,96.3023874 60.2215298,95.7385053 C60.6073909,95.1746232 59.8356695,94.2516679 59.8356695,94.2516679 C59.8356695,94.2516679 57.8246291,91.0315305 56.8369571,88.3922777 C56.1638146,86.5935091 56.277416,85.3074731 56.6072373,84.5430529 C57.4006418,82.7041952 61.8005683,82.874775 64.480294,83.3967609 C67.1600198,83.9187468 69.0244876,86.9618189 69.0244876,86.9618189 C69.0244876,86.9618189 71.0048953,89.5078865 72.1660077,88.8422283 C73.3271201,88.1765701 70.3954051,85.4761412 70.3954051,85.4761412 C70.3954051,85.4761412 67.6971574,83.1072558 65.9890003,82.4705809 C64.6753146,81.9809357 61.3298767,82.0971809 61.3298767,82.0971809 C61.3298767,82.0971809 55.7471718,81.7029758 53.3064949,80.3393198 C50.8658179,78.9756638 48.7677846,74.8822878 48.7677846,74.8822878 C48.7677846,74.8822878 47.9962682,71.6995361 47.9619954,70.2771603 C47.9119213,68.1990094 48.5147439,64.3807076 48.5147439,64.3807076 C48.5147439,64.3807076 49.5476166,62.2195731 50.4488702,61.9817117 C51.4566658,61.7157315 54.2418916,62.8691831 54.2418916,62.8691831 C54.2418916,62.8691831 56.8741592,64.5343796 57.4479656,65.3569047 C58.0387326,66.2037422 57.7356118,67.0237755 57.735612,67.8772711 C57.7356121,68.7307668 60.544923,72.7651684 58.2396019,73.299654 C55.9342807,73.8341396 54.0607051,68.7707972 54.0607051,68.7707972 C54.0607051,68.7707972 53.5465622,65.7696857 51.9001647,66.3696942 C50.2537672,66.9697028 51.9001659,69.7134322 51.9001659,69.7134322 C51.9001659,69.7134322 54.5709147,72.6689062 56.0691736,73.666827 C57.8033233,74.8218637 61.5973917,76.1723047 61.5973917,76.1723047 C61.5973917,76.1723047 64.0973348,77.5479761 65.3759435,77.7812715 C67.0367261,78.0842985 69.9720744,77.5341154 70.4155657,77.7812718 C70.859057,78.0284283 74.1089145,82.8346152 78.2885962,81.220428 C82.4682778,79.6062408 82.5749636,74.0549297 82.5749636,74.0549297 C82.5749636,74.0549297 82.6535602,72.6352983 82.9670327,72.1606141 C83.2177972,71.7808872 84.2676746,71.4916964 84.2676746,71.4916964 C84.2676746,71.4916964 85.3844293,71.4248036 85.3365901,70.7502668 C85.2887509,70.0757301 84.4486027,69.6666494 84.4486027,69.6666494 C84.4486027,69.6666494 83.6988132,69.6788915 83.5987818,69.2173708 C83.4987504,68.7558501 83.7406026,68.4539428 84.1066487,68.0889569 C84.4726948,67.7239711 84.9139381,67.6277819 85.1868765,67.6338761 C85.6007754,67.6431177 85.7923057,67.8723317 86.1671605,68.1349644 C86.5420154,68.397597 86.4108936,68.6521858 86.8096005,68.7707971 C87.2753519,68.9093535 87.923228,68.6685029 88.1940843,68.9296599 C88.4949401,69.219742 88.5778974,70.4593727 88.5778974,70.4593727 C88.5778974,70.4593727 88.9428269,72.397552 88.1940843,73.2996542 Z M84.8971748,65.6583646 C85.2721038,65.2518853 85.7611321,64.4568437 86.0066067,64.2317499 C86.6020219,63.6857698 87.6021417,62.9651465 86.4965193,62.2526585 C84.6955779,61.0920911 83.3123483,63.2294387 83.3123483,63.2294387 C83.3123483,63.2294387 83.0231102,63.8366041 82.772247,64.057314 C82.506858,64.2908037 81.7635918,64.5920374 81.7635918,64.5920374 C81.7635918,64.5920374 80.2997584,65.2984398 79.8051017,66.206614 C79.3954306,66.9587575 79.0506085,69.5729907 79.0506085,69.5729907 C79.0506085,69.5729907 77.1920315,76.0016711 75.973859,76.0016711 C74.7556865,76.0016711 78.0454431,69.4585087 78.0454431,69.4585087 C78.0454431,69.4585087 80.138152,64.4627114 77.4929251,61.0899212 C74.8476983,57.7171309 67.9228677,58.4428421 67.9228677,58.4428421 C67.9228677,58.4428421 66.7510037,58.7011365 65.3793495,58.5932253 C64.4641849,58.5212272 63.3328131,58.0517995 62.4857904,58.1877039 C61.6804872,58.3169145 61.1438313,59.0260824 60.8562836,59.9079853 C59.8129859,63.1077581 65.3793495,62.0589855 68.0979836,62.0589857 C70.8166177,62.0589859 74.0619935,62.7885601 74.0619935,63.7127629 C74.0619935,64.6369658 69.0685746,63.4070902 68.0592392,63.5507544 C67.0499038,63.6944186 66.9921608,64.1738137 66.5149085,64.7869804 C66.0376563,65.4001471 66.2463517,66.5874833 66.2463517,66.5874833 C66.2463517,66.5874833 66.6097652,70.6421638 65.3793495,70.6384098 C64.1489337,70.6346559 65.1245154,66.5680016 65.1245154,66.5680016 C65.1245154,66.5680016 65.753954,62.7537826 62.4857904,63.2294389 C59.2176267,63.7050951 59.3912203,66.6872993 59.3912203,66.6872993 C59.3912203,66.6872993 60.0225489,70.4910525 61.8995813,73.1400534 C63.1245522,74.8688189 65.3276622,75.7414848 66.6869876,76.0016712 C67.5014663,76.1575693 68.7605655,76.0193678 69.6822788,75.3933614 C70.5730113,74.7883965 71.13903,73.7037938 71.2288011,73.3506674 C71.4098717,72.6384019 71.0848786,71.7830552 71.2288011,71.0889489 C71.5237237,69.6666016 72.197885,68.5995651 72.197885,68.5995651 C72.197885,68.5995651 73.154018,67.720522 74.0619935,68.2209211 C74.9699691,68.7213201 74.0619939,70.3881553 74.0619939,70.3881553 C74.0619939,70.3881553 72.1904345,72.462942 71.865593,74.2902764 C71.5407515,76.1176108 73.1540178,78.1654909 73.1540178,78.1654909 C73.1540178,78.1654909 75.4436092,80.5352542 76.3794344,80.3459648 C77.5971701,80.0996534 79.6147006,76.8586884 79.6147006,76.8586884 C79.6147006,76.8586884 80.313221,75.6815687 80.5903501,74.7946816 C81.1850794,72.8913884 82.2302757,68.4881476 82.2302757,68.4881476 C82.2302757,68.4881476 82.6579354,67.4343361 83.0816231,66.9354599 C83.4025429,66.5575891 84.700178,65.8719387 84.8971748,65.6583646 Z M82.5723978,61.2887946 C81.9413203,61.7605238 80.6004839,63.2294387 80.6004839,63.2294387 C80.6004839,63.2294387 79.8508247,61.0085784 79.0874061,60.0689863 C78.3818982,59.2006688 76.1937042,57.8057099 76.1937042,57.8057099 C76.1937042,57.8057099 78.3104185,57.3789272 79.3160229,56.9110247 C80.3790994,56.4163807 82.3997472,54.9180705 82.3997472,54.9180705 C82.3997472,54.9180705 84.5390831,53.3223722 85.8636229,54.5621488 C87.1881627,55.8019254 84.4193925,57.2258205 84.4193925,57.2258205 C84.4193925,57.2258205 81.5772713,58.555361 82.3997472,59.3552086 C83.2222231,60.1550562 85.4055154,58.421137 85.4055154,58.421137 C85.4055154,58.421137 87.7018505,55.7980487 86.5233641,53.9894658 C85.3448777,52.1808829 82.0229338,53.3223733 82.0229338,53.3223733 C82.0229338,53.3223733 77.2169437,57.1324091 74.9190463,57.0813956 C72.621149,57.0303821 71.9938204,53.5609599 71.9938204,53.5609599 C71.9938204,53.5609599 69.1207789,47.3042437 67.8026523,48.0246681 C66.4845257,48.7450924 70.8927734,54.2203171 70.8927734,54.2203171 C70.8927734,54.2203171 71.6612069,55.7208961 71.1210199,56.3159604 C70.5808329,56.9110247 69.4326548,56.4337975 69.4326548,56.4337975 C69.4326548,56.4337975 67.1038463,56.9338488 65.9526431,56.9110247 C65.1226855,56.8945698 63.4891724,56.3159606 63.4891724,56.3159606 C63.4891724,56.3159606 60.5487998,57.2258213 60.2060822,57.2258213 C59.8633647,57.2258213 59.0497658,54.8354523 59.0497658,54.8354523 C59.0497658,54.8354523 57.9773292,50.1699478 56.347838,50.9505874 C54.7183467,51.7312271 57.2009178,55.8835388 57.2009178,55.8835388 C57.2009178,55.8835388 58.4493914,57.6112033 58.7992633,58.6615725 C58.9821731,59.210696 58.799263,60.6820171 58.799263,60.6820171 C58.799263,60.6820171 59.324862,61.6035672 59.1983194,61.8479387 C59.1236124,61.9922084 58.1955143,61.8479406 58.1955143,61.8479406 C58.1955143,61.8479406 53.4740364,62.7752334 50.9732709,57.2258213 C48.4725054,51.6764092 51.0895509,47.8690395 51.0895509,47.8690395 C51.0895509,47.8690395 54.0369616,44.7017331 56.7097635,45.1438087 C56.9614898,45.1854437 59.1531676,45.3809173 60.5170331,46.4581982 C61.6158224,47.3261025 62.151356,48.6671529 62.7417335,49.5648307 C63.2298087,50.3069564 63.6823628,50.9505874 63.6823628,50.9505874 C63.6823628,50.9505874 64.8513154,52.8926873 65.4653006,52.6549347 C66.0792859,52.417182 65.2186203,50.135481 65.2186203,50.135481 C65.2186203,50.135481 63.0418816,48.685384 63.0418816,45.1438087 C63.0418816,41.6022334 64.8513143,39.8087294 64.8513143,39.8087294 C64.8513143,39.8087294 66.1847564,38.8372222 66.5509712,38.296109 C67.4152916,37.0190029 68.5429199,34.3540717 68.5429199,34.3540717 C68.5429199,34.3540717 69.9049391,31.7850854 70.7277415,31.6122382 C71.8243127,31.3818801 74.3010408,33.1444558 74.3010408,33.1444558 C74.3010408,33.1444558 76.2785824,34.00215 76.4026661,33.3528549 C76.5267498,32.7035598 74.6248937,31.4311865 74.6248937,31.4311865 C74.6248937,31.4311865 71.4050739,29.4656098 69.6038631,29.8327246 C67.8026523,30.1998395 66.6824205,32.5820163 66.6824205,32.5820163 C66.6824205,32.5820163 64.7763348,38.916621 62.7417335,41.1344015 C61.1900321,42.8258057 55.9235126,44.3095701 55.9235126,44.3095701 C55.9235126,44.3095701 50.7723747,45.9492633 49.1115305,43.7145929 C47.4506863,41.4799226 48.6997123,37.2563023 48.6997123,37.2563023 C48.6997123,37.2563023 49.435456,35.6552993 50.0325381,35.0284057 C50.6747297,34.3541502 52.4175333,33.3528551 52.4175333,33.3528551 C52.4175333,33.3528551 56.2773249,30.8569337 57.3912521,29.5646549 C58.4786245,28.3031825 59.021432,25.6916017 59.021432,25.6916017 C59.021432,25.6916017 60.294458,23.4346536 60.5170331,22.0384757 C60.792992,20.3074295 60.2060822,16.7186228 60.517034,16.3099293 C60.8279858,15.9012358 62.0616512,17.3998532 62.5203828,18.3069996 C62.8466128,18.9521229 62.8719188,20.9667384 62.8719188,20.9667384 C62.8719188,20.9667384 63.884485,23.6135807 63.9500149,24.8899542 C64.0012627,25.8881422 63.222252,27.7904229 63.222252,27.7904229 C63.222252,27.7904229 62.3787363,29.8886656 61.7813764,30.7378476 C61.0374256,31.795417 59.1983198,33.5106771 59.1983198,33.5106771 C59.1983198,33.5106771 53.8950367,38.8222799 55.5432161,40.155461 C57.1913955,41.4886421 60.3642433,34.0021497 60.3642433,34.0021497 L64.5502343,28.0351 C64.5502343,28.0351 66.4079964,26.0634339 66.8679402,25.9044018 C67.3278841,25.7453696 69.7197002,25.7800456 69.7197002,25.7800456 C69.7197002,25.7800456 71.9938201,24.490342 73.3799841,25.0006289 C74.7661481,25.5109158 76.2785826,27.8468257 76.2785826,27.8468257 L78.2945207,32.7006476 C78.2945207,32.7006476 80.5175051,34.0172794 79.6082041,35.82358 C78.6989031,37.6298805 76.0985172,36.983821 76.0985172,36.983821 C76.0985172,36.983821 73.5295926,36.7676374 72.4630266,37.9334567 C71.3964605,39.099276 72.2072508,41.6022338 72.2072508,41.6022338 L73.205025,47.1654604 C73.205025,47.1654604 73.5370681,53.5609589 75.5512192,53.3223735 C77.5653704,53.0837881 74.5058959,49.6922021 74.1622854,47.1654599 C73.8186749,44.6387177 72.928461,38.7717164 75.5512192,38.2961077 C78.1739775,37.820499 79.8407,46.6946424 79.8407,46.6946424 C79.8407,46.6946424 79.8407002,49.2038815 80.1848072,50.5774363 C80.5289143,51.9509911 82.5723981,49.5648319 82.5723981,49.5648319 C82.5723981,49.5648319 83.8576779,48.47837 84.8606504,48.7601456 C85.8636229,49.0419211 86.1225995,49.564832 86.1225994,50.577435 C86.1225993,51.5900381 87.064765,54.1943073 88.1529584,54.220317 C89.2411517,54.2463268 87.5300224,50.7185746 87.5300224,50.7185746 C87.5300224,50.7185746 86.232299,48.0418652 85.9722755,46.6946435 C85.6768326,45.1639081 85.863623,42.0847032 85.863623,42.0847032 C85.863623,42.0847032 85.7178085,40.679933 85.2987804,39.5442585 C84.8264103,38.2640135 84.0604789,37.2687901 83.782145,37.9334567 C83.2569077,39.187733 83.9824691,42.0847032 83.9824691,42.0847032 C83.9824691,42.0847032 86.5859048,47.6609748 83.2133025,48.0246668 C80.9307515,48.2708106 80.3720709,45.4716646 80.0647884,43.7145916 C79.9180432,42.8754867 79.7236802,42.4909608 79.6082038,42.367247 C79.4927274,42.2435331 79.3160229,40.219852 79.3160229,39.250651 C79.3160229,38.5714591 79.6082038,37.4220684 79.6082038,37.4220684 C79.6082038,37.4220684 80.461078,33.9179628 83.5898661,34.00215 C86.7186543,34.0863371 87.0647652,37.7959689 87.0647652,37.7959689 L87.7651666,43.5045719 C87.7651666,43.5045719 87.9718277,46.0620716 88.2709004,47.1654599 C88.5370035,48.1472114 89.4606943,49.7599911 89.4606943,49.7599911 C89.4606943,49.7599911 90.9596895,54.5746481 90.3710172,56.1989074 C89.782345,57.8231667 88.4896651,57.8181827 88.4896651,57.8181827 C88.4896651,57.8181827 87.1831054,59.852627 86.5233641,60.0689863 C85.8636229,60.2853456 84.5390831,60.2853436 84.5390831,60.2853436 C84.5390831,60.2853436 83.2541867,60.7791587 82.5723978,61.2887946 Z M72.7498285,20.1228548 C72.6216023,20.7434862 72.8361764,21.2024632 72.5396917,21.7622538 C72.2432071,22.3220443 71.1677997,23.8574405 68.1764563,24.0294743 C65.185113,24.2015081 65.1851131,21.9342546 65.1851131,21.9342546 C65.1851131,21.9342546 64.6059893,18.4380479 63.761188,16.9779935 C62.9163867,15.5179391 61.1054577,14.8834617 61.1054577,14.8834617 C61.1054577,14.8834617 59.9343167,14.1149197 59.231974,14.6409095 C58.5296314,15.1668994 58.686723,16.5330395 58.686723,16.5330395 C58.686723,16.5330395 59.9467138,22.8512191 57.9111474,24.2015081 C57.0402692,24.7792035 54.6632121,24.4903901 53.5660158,23.7808983 C52.0986561,22.8320437 51.9984928,21.2616162 51.9984928,21.2616162 C51.9984928,21.2616162 51.571127,20.2135382 50.9926197,20.1228545 C50.4141125,20.0321707 50.8922434,22.0583055 50.8922434,22.0583055 C50.8922434,22.0583055 51.8421063,24.3253821 52.4787922,24.830509 C53.3640241,25.5328246 55.4579969,25.6806329 55.4579969,25.6806329 C55.4579969,25.6806329 57.0516069,25.6806331 57.2420973,26.346493 C57.4325878,27.0123529 56.0574216,28.3403541 56.0574216,28.3403541 C56.0574216,28.3403541 52.186545,32.9501374 50.0628034,32.1580873 C47.9390619,31.3660372 48.5054754,25.9399745 48.5054754,25.9399745 C48.5054754,25.9399745 48.4775406,22.0285528 48.6857003,20.5908273 C48.8756446,19.2789127 49.3106492,18.2344871 49.6997875,17.6910541 C50.0889258,17.1476211 50.489822,16.7109078 51.3175337,16.7300356 C52.1452454,16.7491634 52.714647,17.8286135 52.714647,17.8286135 C52.714647,17.8286135 54.9471586,21.0280149 55.6874595,20.5114958 C56.4277603,19.9949768 54.0054775,16.9779935 54.0054775,16.9779935 C54.0054775,16.9779935 52.7868926,15.3922525 52.4787922,14.4422 C52.1490394,13.4253807 52.0919177,11.0773782 52.0919177,11.0773782 C52.0919177,11.0773782 52.1967865,7.12137827 51.71502,7.12137827 C51.2332534,7.12137827 51.2332545,10.9329099 51.2332545,10.9329099 C51.2332545,10.9329099 51.5308515,15.1715572 49.5776955,15.1668994 C47.6245395,15.1622416 47.6245387,10.907646 47.6245387,10.907646 C47.6245387,10.907646 47.5346462,8.1925826 47.849979,6.93841019 C48.1856986,5.60315339 48.9283906,3.8578092 49.5776958,3.13935839 C50.227001,2.42090757 50.7032278,1.55522748 52.7146465,1.69765999 C54.7260652,1.8400925 55.1490555,4.07474131 55.1490555,4.07474131 C55.1490555,4.07474131 55.7537572,8.13318633 56.1499986,8.60894503 C57.3131069,10.0054646 58.6867225,9.45298718 59.8271044,9.69157603 C60.9674864,9.93016488 63.2084062,10.601208 64.3429675,11.2339514 C65.7923702,12.0422814 67.5789963,14.0147961 67.5789963,14.0147961 L69.0073862,15.9783681 C69.0073862,15.9783681 68.8096978,13.682814 68.0903004,12.6593214 C67.4864539,11.800224 65.0376544,10.330598 65.0376544,10.330598 C65.0376544,10.330598 62.8311265,9.24558943 61.6670479,8.78620173 C61.0406208,8.53899086 59.6661373,8.21080227 59.6661373,8.21080227 C59.6661373,8.21080227 57.9149298,7.65097559 57.6608282,7.12137829 C57.419723,6.61886803 57.503071,5.7496807 58.180517,5.1144796 C58.857963,4.4792785 59.5059042,4.07474131 61.4936214,4.21868051 C63.4813386,4.3626197 67.6596346,7.24200914 67.6596346,7.24200914 C67.6596346,7.24200914 69.9391899,8.40227045 71.7348149,10.3305977 C72.6187168,11.2798226 73.2009471,12.648121 73.6967086,13.700437 C75.1995979,16.8905073 73.6967087,18.0508286 73.3511793,18.5558182 C73.0056498,19.0608079 72.847568,19.6497828 72.7498285,20.1228548 Z M77.8886195,20.8565573 C77.5501419,19.9695471 77.0475559,18.6025453 76.0040759,18.6025453 C74.9605958,18.6025453 74.498789,20.8565573 74.498789,20.8565573 C74.498789,20.8565573 73.7980565,22.7957285 74.0581859,23.2110042 C74.3183153,23.6262799 75.8389818,24.7782358 75.8389818,24.7782358 C75.8389818,24.7782358 77.1886074,26.3118954 77.6992559,27.168505 C78.4191595,28.3761384 79.5306383,30.9709649 79.5306383,30.9709649 C79.5306383,30.9709649 80.287532,32.3906703 81.7157035,32.3906703 C83.1438749,32.3906703 82.8141096,30.9030223 82.8141097,30.0027293 C82.8141097,29.501539 80.9677499,28.0786951 80.1169347,26.7823322 C79.4394221,25.7500257 79.7176393,25.7445666 79.7176393,24.7428887 C79.7176393,23.7412109 78.2270971,21.7435676 77.8886195,20.8565573 Z M88.9386757,59.8396082 C89.3171222,59.3889221 89.3531447,59.2643748 89.8255935,59.2804319 C90.2980423,59.296489 90.3915859,59.4386826 90.7699754,59.8396082 C91.4478585,60.5578645 91.3316526,62.3015536 91.1588978,63.5684218 C90.9926695,64.7874293 90.5472402,66.6479631 89.7530263,67.2972353 C88.9588123,67.9465075 87.5470861,67.0045295 87.2751541,66.7898314 C87.1576151,66.697031 86.9620728,66.4119363 86.9818736,66.1201772 C87.0078829,65.736938 86.9818736,65.6254394 87.2751542,65.3408848 C87.5684347,65.0563302 88.1453986,65.0634477 88.3064781,64.6272831 C88.4891733,64.1325885 88.3064781,63.1768848 88.306478,62.5483072 C88.3064779,61.9197296 88.0820881,60.8597053 88.9386757,59.8396082 Z M46.2986678,10.8051753 C46.2836421,8.71803418 46.3538406,4.30059473 44.7292122,2.32007209 C39.7872369,-3.70450182 36.0096856,3.9074048 36.0096856,3.9074048 C36.0096856,3.9074048 32.7575956,-0.551820892 24.5754682,5.5490067 C22.6269839,7.00185224 21.0706968,8.12312668 20.0086446,9.43260387 C16.6108987,13.6219181 17.1908182,17.0449945 17.1908182,17.0449945 C17.1908182,17.0449945 15.1480284,17.5652559 13.5941302,20.1033149 C12.0402321,22.641374 12.7040229,23.8616643 12.1460699,24.8976239 C11.3953036,26.2915826 9.16767728,28.2892599 8.51928782,29.9232457 C8.05956588,31.0817765 9.03547229,32.1871453 9.03547229,32.1871453 C9.03547229,32.1871453 6.38442008,32.6162737 4.75887047,36.1857631 C3.78392717,38.3266081 3.7653082,43.4420113 3.26541471,45.1107943 C2.6317988,47.2259799 0.99615539,51.4686433 0.649571931,54.216381 C0.305676801,56.9428055 1.24838238,58.1826101 1.24838238,58.1826101 C1.24838238,58.1826101 -0.564115885,61.7346657 0.178786508,64.7889063 C0.921688901,67.8431469 2.69975815,69.0535192 2.69975815,69.0535192 C2.69975815,69.0535192 2.38836676,73.2854863 3.2654148,74.4792822 C4.14246284,75.6730781 5.97689376,76.3453372 5.97689376,76.3453372 C5.97689376,76.3453372 6.27379308,79.4372741 7.54711345,80.8557957 C9.06637167,82.5483002 14.3546295,85.6784154 14.3546295,85.6784154 C14.3546295,85.6784154 11.9114426,90.118491 18.5519138,92.7583029 C25.1923849,95.3981147 27.6330219,93.927361 27.6330219,93.927361 C27.6330219,93.927361 26.2127608,96.6278697 30.6043774,98.3488128 C34.9959939,100.069756 41.1276798,98.9879214 41.1276798,98.9879214 C41.1276798,98.9879214 41.2613122,99.7239349 42.9952641,99.7239349 C44.729216,99.7239349 46.2986682,97.3322666 46.2986682,97.3322666 C46.2986682,97.3322666 46.0849946,93.785163 46.0069146,90.4120287 C45.964961,88.5995944 46.1466993,86.9350826 46.0069146,85.6784161 C45.8902433,84.6295397 46.3367512,82.7190544 46.0069146,81.5038287 C45.5178589,79.7019884 44.2298648,78.7336932 44.2298648,78.7336932 C44.2298648,78.7336932 46.2986678,75.3287933 46.2986678,67.8862491 C46.2986678,60.4437049 42.5114726,60.1800051 42.5114726,60.1800051 C42.5114726,60.1800051 44.729216,56.0000662 44.729216,53.0570182 C44.729216,50.1139702 42.9952645,46.7228367 42.9952645,46.7228367 C42.9952645,46.7228367 45.7151613,44.8697882 46.0069146,41.2514224 C46.2986678,37.6330566 43.8804737,33.0585839 43.8804737,33.0585839 C43.8804737,33.0585839 46.590421,31.8956472 46.2986678,24.8976239 C46.0069146,17.8996005 44.7292135,16.5793099 44.7292135,16.5793099 C44.7292135,16.5793099 46.3293488,15.0669319 46.2986678,10.8051753 Z M39.0777629,86.8082712 C38.5220925,86.1161523 38.3825669,84.5853709 38.3825669,84.5853709 C38.3825669,84.5853709 38.4261785,83.268546 40.0962094,82.1018022 C41.7662404,80.9350585 42.7889424,80.4966192 43.758462,80.829577 C44.9691087,81.245344 44.8232449,83.5684218 44.8232449,83.5684218 C44.8232449,83.5684218 44.2512365,86.1678302 44.2582785,87.4890641 C44.2642063,88.6012339 44.8621545,90.8686329 44.8621545,90.8686329 C44.8621545,90.8686329 45.5563299,93.2821249 45.468774,94.412717 C45.3896263,95.434737 45.087001,96.3802498 44.3620438,97.326469 C43.6370866,98.2726881 43.2147483,98.2675345 42.4843747,98.3079755 C41.7540012,98.3484164 41.9549672,97.4548281 41.8524758,97.0814108 C41.7499844,96.7079935 41.3719544,95.690129 40.8733207,95.3760961 C40.2333468,94.9730489 38.4366531,94.9301706 38.4366531,94.9301706 C38.4366531,94.9301706 35.5059496,95.1246688 34.9396017,93.9667918 C34.3732538,92.8089148 36.6716728,92.4590787 37.0984847,91.6852317 C37.5252966,90.9113847 37.1127598,90.5538208 37.4044889,89.4977375 C37.627616,88.6899994 38.0738977,87.924275 38.436653,87.7547972 C38.9611645,87.5097475 40.873321,89.9535597 40.873321,89.9535597 C40.873321,89.9535597 42.8769967,91.5489371 43.2147481,91.0837082 C43.5524994,90.6184794 41.5170763,88.4895797 41.5170763,88.4895797 C41.5170763,88.4895797 39.566929,87.4175553 39.0777629,86.8082712 Z M4.68727162,73.2996542 C5.43601421,74.2017564 5.87083755,74.4158789 6.51816016,74.4158794 C7.16548277,74.4158799 7.93090145,73.9494717 8.27229132,74.4158799 C8.61368119,74.8822881 8.07186389,75.5049462 7.87409236,75.7718116 C7.67632084,76.0386769 7.3354741,77.7141102 8.43275333,79.2079324 C8.84806882,79.7733376 10.2176972,81.1352091 11.4512253,82.0971815 C12.5037122,82.9179681 13.4749592,83.3967611 13.4749592,83.3967611 C13.4749592,83.3967611 15.335239,84.4740815 15.7129999,85.0177809 C15.9807213,85.4031039 15.4114061,86.1838283 15.4114061,86.1838283 C15.4114061,86.1838283 14.235556,89.383067 20.0331304,91.5223493 C25.8307047,93.6616315 27.5054115,92.0221176 27.5054115,92.0221176 C27.5054115,92.0221176 28.1882199,91.2725423 28.7373087,90.3413216 C29.4872742,89.0694266 30.2668928,87.5469317 31.2839644,87.9445305 C32.3902995,88.3770245 31.0870386,90.359562 30.297538,91.7906298 C29.8298415,92.6383878 28.7494744,94.5718312 29.8331794,95.9132262 C30.9168845,97.2546211 33.6716974,97.418167 33.6716974,97.418167 C33.6716974,97.418167 40.8113506,98.4144598 40.0853659,97.2275277 C39.3593811,96.0405957 33.7582844,96.0648253 33.7582844,96.0648253 C33.7582844,96.0648253 33.0456873,96.3023874 32.6598262,95.7385053 C32.273965,95.1746232 33.0456864,94.2516679 33.0456864,94.2516679 C33.0456864,94.2516679 35.0567269,91.0315305 36.0443988,88.3922777 C36.7175414,86.5935091 36.6039399,85.3074731 36.2741186,84.5430529 C35.4807141,82.7041952 31.0807877,82.874775 28.4010619,83.3967609 C25.7213362,83.9187468 23.8568684,86.9618189 23.8568684,86.9618189 C23.8568684,86.9618189 21.8764606,89.5078865 20.7153482,88.8422283 C19.5542359,88.1765701 22.4859508,85.4761412 22.4859508,85.4761412 C22.4859508,85.4761412 25.1841985,83.1072558 26.8923556,82.4705809 C28.2060413,81.9809357 31.5514793,82.0971809 31.5514793,82.0971809 C31.5514793,82.0971809 37.1341841,81.7029758 39.5748611,80.3393198 C42.015538,78.9756638 44.1135713,74.8822878 44.1135713,74.8822878 C44.1135713,74.8822878 44.8850877,71.6995361 44.9193606,70.2771603 C44.9694346,68.1990094 44.3666121,64.3807076 44.3666121,64.3807076 C44.3666121,64.3807076 43.3337394,62.2195731 42.4324857,61.9817117 C41.4246901,61.7157315 38.6394643,62.8691831 38.6394643,62.8691831 C38.6394643,62.8691831 36.0071968,64.5343796 35.4333904,65.3569047 C34.8426233,66.2037422 35.1457441,67.0237755 35.1457439,67.8772711 C35.1457438,68.7307668 32.3364329,72.7651684 34.6417541,73.299654 C36.9470752,73.8341396 38.8206508,68.7707972 38.8206508,68.7707972 C38.8206508,68.7707972 39.3347938,65.7696857 40.9811913,66.3696942 C42.6275887,66.9697028 40.9811901,69.7134322 40.9811901,69.7134322 C40.9811901,69.7134322 38.3104412,72.6689062 36.8121823,73.666827 C35.0780326,74.8218637 31.2839643,76.1723047 31.2839643,76.1723047 C31.2839643,76.1723047 28.7840212,77.5479761 27.5054124,77.7812715 C25.8446298,78.0842985 22.9092815,77.5341154 22.4657902,77.7812718 C22.022299,78.0284283 18.7724415,82.8346152 14.5927598,81.220428 C10.4130781,79.6062408 10.3063923,74.0549297 10.3063923,74.0549297 C10.3063923,74.0549297 10.2277958,72.6352983 9.91432323,72.1606141 C9.66355877,71.7808872 8.61368132,71.4916964 8.61368132,71.4916964 C8.61368132,71.4916964 7.49692662,71.4248036 7.54476583,70.7502668 C7.59260505,70.0757301 8.43275328,69.6666494 8.43275328,69.6666494 C8.43275328,69.6666494 9.18254269,69.6788915 9.28257413,69.2173708 C9.38260557,68.7558501 9.14075337,68.4539428 8.77470727,68.0889569 C8.40866117,67.7239711 7.96741786,67.6277819 7.69447945,67.6338761 C7.28058058,67.6431177 7.08905027,67.8723317 6.71419541,68.1349644 C6.33934054,68.397597 6.47046234,68.6521858 6.0717554,68.7707971 C5.60600405,68.9093535 4.95812794,68.6685029 4.6872716,68.9296599 C4.38641584,69.219742 4.30345856,70.4593727 4.30345856,70.4593727 C4.30345856,70.4593727 3.93852902,72.397552 4.68727162,73.2996542 Z M7.98418114,65.6583646 C7.60925215,65.2518853 7.12022382,64.4568437 6.87474925,64.2317499 C6.27933406,63.6857698 5.27921424,62.9651465 6.38483665,62.2526585 C8.18577807,61.0920911 9.56900762,63.2294387 9.56900762,63.2294387 C9.56900762,63.2294387 9.85824571,63.8366041 10.109109,64.057314 C10.3744979,64.2908037 11.1177641,64.5920374 11.1177641,64.5920374 C11.1177641,64.5920374 12.5815975,65.2984398 13.0762542,66.206614 C13.4859253,66.9587575 13.8307474,69.5729907 13.8307474,69.5729907 C13.8307474,69.5729907 15.6893244,76.0016711 16.9074969,76.0016711 C18.1256694,76.0016711 14.8359128,69.4585087 14.8359128,69.4585087 C14.8359128,69.4585087 12.743204,64.4627114 15.3884308,61.0899212 C18.0336576,57.7171309 24.9584882,58.4428421 24.9584882,58.4428421 C24.9584882,58.4428421 26.1303523,58.7011365 27.5020065,58.5932253 C28.4171711,58.5212272 29.5485428,58.0517995 30.3955656,58.1877039 C31.2008687,58.3169145 31.7375246,59.0260824 32.0250723,59.9079853 C33.0683701,63.1077581 27.5020065,62.0589855 24.7833723,62.0589857 C22.0647382,62.0589859 18.8193624,62.7885601 18.8193624,63.7127629 C18.8193624,64.6369658 23.8127813,63.4070902 24.8221167,63.5507544 C25.8314522,63.6944186 25.8891951,64.1738137 26.3664474,64.7869804 C26.8436996,65.4001471 26.6350042,66.5874833 26.6350042,66.5874833 C26.6350042,66.5874833 26.2715907,70.6421638 27.5020065,70.6384098 C28.7324222,70.6346559 27.7568406,66.5680016 27.7568406,66.5680016 C27.7568406,66.5680016 27.1274019,62.7537826 30.3955656,63.2294389 C33.6637292,63.7050951 33.4901356,66.6872993 33.4901356,66.6872993 C33.4901356,66.6872993 32.8588071,70.4910525 30.9817746,73.1400534 C29.7568037,74.8688189 27.5536937,75.7414848 26.1943683,76.0016712 C25.3798896,76.1575693 24.1207904,76.0193678 23.1990771,75.3933614 C22.3083446,74.7883965 21.7423259,73.7037938 21.6525549,73.3506674 C21.4714842,72.6384019 21.7964773,71.7830552 21.6525549,71.0889489 C21.3576322,69.6666016 20.683471,68.5995651 20.683471,68.5995651 C20.683471,68.5995651 19.7273379,67.720522 18.8193624,68.2209211 C17.9113869,68.7213201 18.8193621,70.3881553 18.8193621,70.3881553 C18.8193621,70.3881553 20.6909214,72.462942 21.0157629,74.2902764 C21.3406044,76.1176108 19.7273381,78.1654909 19.7273381,78.1654909 C19.7273381,78.1654909 17.4377467,80.5352542 16.5019215,80.3459648 C15.2841858,80.0996534 13.2666553,76.8586884 13.2666553,76.8586884 C13.2666553,76.8586884 12.5681349,75.6815687 12.2910059,74.7946816 C11.6962765,72.8913884 10.6510802,68.4881476 10.6510802,68.4881476 C10.6510802,68.4881476 10.2234205,67.4343361 9.7997328,66.9354599 C9.47881305,66.5575891 8.18117798,65.8719387 7.98418114,65.6583646 Z M10.3089581,61.2887946 C10.9400356,61.7605238 12.280872,63.2294387 12.280872,63.2294387 C12.280872,63.2294387 13.0305312,61.0085784 13.7939498,60.0689863 C14.4994578,59.2006688 16.6876517,57.8057099 16.6876517,57.8057099 C16.6876517,57.8057099 14.5709375,57.3789272 13.5653331,56.9110247 C12.5022565,56.4163807 10.4816088,54.9180705 10.4816088,54.9180705 C10.4816088,54.9180705 8.34227285,53.3223722 7.01773302,54.5621488 C5.69319319,55.8019254 8.46196341,57.2258205 8.46196341,57.2258205 C8.46196341,57.2258205 11.3040846,58.555361 10.4816087,59.3552086 C9.65913286,60.1550562 7.47584052,58.421137 7.47584052,58.421137 C7.47584052,58.421137 5.17950541,55.7980487 6.3579918,53.9894658 C7.53647819,52.1808829 10.8584221,53.3223733 10.8584221,53.3223733 C10.8584221,53.3223733 15.6644123,57.1324091 17.9623096,57.0813956 C20.2602069,57.0303821 20.8875355,53.5609599 20.8875355,53.5609599 C20.8875355,53.5609599 23.760577,47.3042437 25.0787037,48.0246681 C26.3968303,48.7450924 21.9885825,54.2203171 21.9885825,54.2203171 C21.9885825,54.2203171 21.220149,55.7208961 21.760336,56.3159604 C22.300523,56.9110247 23.4487011,56.4337975 23.4487011,56.4337975 C23.4487011,56.4337975 25.7775097,56.9338488 26.9287129,56.9110247 C27.7586705,56.8945698 29.3921835,56.3159606 29.3921835,56.3159606 C29.3921835,56.3159606 32.3325561,57.2258213 32.6752737,57.2258213 C33.0179913,57.2258213 33.8315901,54.8354523 33.8315901,54.8354523 C33.8315901,54.8354523 34.9040267,50.1699478 36.533518,50.9505874 C38.1630092,51.7312271 35.6804382,55.8835388 35.6804382,55.8835388 C35.6804382,55.8835388 34.4319645,57.6112033 34.0820927,58.6615725 C33.8991828,59.210696 34.0820929,60.6820171 34.0820929,60.6820171 C34.0820929,60.6820171 33.5564939,61.6035672 33.6830365,61.8479387 C33.7577435,61.9922084 34.6858416,61.8479406 34.6858416,61.8479406 C34.6858416,61.8479406 39.4073195,62.7752334 41.908085,57.2258213 C44.4088506,51.6764092 41.791805,47.8690395 41.791805,47.8690395 C41.791805,47.8690395 38.8443943,44.7017331 36.1715924,45.1438087 C35.9198661,45.1854437 33.7281883,45.3809173 32.3643228,46.4581982 C31.2655336,47.3261025 30.73,48.6671529 30.1396224,49.5648307 C29.6515472,50.3069564 29.1989931,50.9505874 29.1989931,50.9505874 C29.1989931,50.9505874 28.0300405,52.8926873 27.4160553,52.6549347 C26.8020701,52.417182 27.6627356,50.135481 27.6627356,50.135481 C27.6627356,50.135481 29.8394743,48.685384 29.8394743,45.1438087 C29.8394743,41.6022334 28.0300417,39.8087294 28.0300417,39.8087294 C28.0300417,39.8087294 26.6965995,38.8372222 26.3303847,38.296109 C25.4660643,37.0190029 24.3384361,34.3540717 24.3384361,34.3540717 C24.3384361,34.3540717 22.9764169,31.7850854 22.1536145,31.6122382 C21.0570432,31.3818801 18.5803151,33.1444558 18.5803151,33.1444558 C18.5803151,33.1444558 16.6027735,34.00215 16.4786898,33.3528549 C16.3546061,32.7035598 18.2564622,31.4311865 18.2564622,31.4311865 C18.2564622,31.4311865 21.476282,29.4656098 23.2774928,29.8327246 C25.0787037,30.1998395 26.1989354,32.5820163 26.1989354,32.5820163 C26.1989354,32.5820163 28.1050212,38.916621 30.1396224,41.1344015 C31.6913238,42.8258057 36.9578433,44.3095701 36.9578433,44.3095701 C36.9578433,44.3095701 42.1089812,45.9492633 43.7698254,43.7145929 C45.4306696,41.4799226 44.1816437,37.2563023 44.1816437,37.2563023 C44.1816437,37.2563023 43.4458999,35.6552993 42.8488178,35.0284057 C42.2066262,34.3541502 40.4638227,33.3528551 40.4638227,33.3528551 C40.4638227,33.3528551 36.604031,30.8569337 35.4901039,29.5646549 C34.4027315,28.3031825 33.859924,25.6916017 33.859924,25.6916017 C33.859924,25.6916017 32.5868979,23.4346536 32.3643228,22.0384757 C32.0883639,20.3074295 32.6752737,16.7186228 32.3643219,16.3099293 C32.0533701,15.9012358 30.8197047,17.3998532 30.3609731,18.3069996 C30.0347431,18.9521229 30.0094371,20.9667384 30.0094371,20.9667384 C30.0094371,20.9667384 28.996871,23.6135807 28.931341,24.8899542 C28.8800933,25.8881422 29.659104,27.7904229 29.659104,27.7904229 C29.659104,27.7904229 30.5026196,29.8886656 31.0999796,30.7378476 C31.8439304,31.795417 33.6830362,33.5106771 33.6830362,33.5106771 C33.6830362,33.5106771 38.9863192,38.8222799 37.3381398,40.155461 C35.6899604,41.4886421 32.5171127,34.0021497 32.5171127,34.0021497 L28.3311216,28.0351 C28.3311216,28.0351 26.4733596,26.0634339 26.0134157,25.9044018 C25.5534718,25.7453696 23.1616557,25.7800456 23.1616557,25.7800456 C23.1616557,25.7800456 20.8875359,24.490342 19.5013718,25.0006289 C18.1152078,25.5109158 16.6027733,27.8468257 16.6027733,27.8468257 L14.5868352,32.7006476 C14.5868352,32.7006476 12.3638508,34.0172794 13.2731518,35.82358 C14.1824528,37.6298805 16.7828387,36.983821 16.7828387,36.983821 C16.7828387,36.983821 19.3517633,36.7676374 20.4183294,37.9334567 C21.4848955,39.099276 20.6741051,41.6022338 20.6741051,41.6022338 L19.6763309,47.1654604 C19.6763309,47.1654604 19.3442878,53.5609589 17.3301367,53.3223735 C15.3159856,53.0837881 18.3754601,49.6922021 18.7190705,47.1654599 C19.062681,44.6387177 19.9528949,38.7717164 17.3301367,38.2961077 C14.7073784,37.820499 13.0406559,46.6946424 13.0406559,46.6946424 C13.0406559,46.6946424 13.0406557,49.2038815 12.6965487,50.5774363 C12.3524417,51.9509911 10.3089578,49.5648319 10.3089578,49.5648319 C10.3089578,49.5648319 9.023678,48.47837 8.02070551,48.7601456 C7.01773302,49.0419211 6.75875646,49.564832 6.75875652,50.577435 C6.75875659,51.5900381 5.81659089,54.1943073 4.72839758,54.220317 C3.64020427,54.2463268 5.35133354,50.7185746 5.35133354,50.7185746 C5.35133354,50.7185746 6.64905691,48.0418652 6.90908042,46.6946435 C7.20452338,45.1639081 7.01773294,42.0847032 7.01773294,42.0847032 C7.01773294,42.0847032 7.16354746,40.679933 7.58257557,39.5442585 C8.05494566,38.2640135 8.82087701,37.2687901 9.09921095,37.9334567 C9.62444821,39.187733 8.89888682,42.0847032 8.89888682,42.0847032 C8.89888682,42.0847032 6.29545113,47.6609748 9.66805343,48.0246668 C11.9506044,48.2708106 12.5092851,45.4716646 12.8165675,43.7145916 C12.9633128,42.8754867 13.1576758,42.4909608 13.2731521,42.367247 C13.3886285,42.2435331 13.5653331,40.219852 13.5653331,39.250651 C13.5653331,38.5714591 13.2731521,37.4220684 13.2731521,37.4220684 C13.2731521,37.4220684 12.420278,33.9179628 9.29148979,34.00215 C6.1627016,34.0863371 5.81659077,37.7959689 5.81659077,37.7959689 L5.11618931,43.5045719 C5.11618931,43.5045719 4.90952826,46.0620716 4.61045554,47.1654599 C4.34435238,48.1472114 3.42066168,49.7599911 3.42066168,49.7599911 C3.42066168,49.7599911 1.92166647,54.5746481 2.51033871,56.1989074 C3.09901096,57.8231667 4.39169085,57.8181827 4.39169085,57.8181827 C4.39169085,57.8181827 5.69825057,59.852627 6.3579918,60.0689863 C7.01773302,60.2853456 8.34227288,60.2853436 8.34227288,60.2853436 C8.34227288,60.2853436 9.62716923,60.7791587 10.3089581,61.2887946 Z M20.1315274,20.1228548 C20.2597536,20.7434862 20.0451796,21.2024632 20.3416642,21.7622538 C20.6381489,22.3220443 21.7135562,23.8574405 24.7048996,24.0294743 C27.6962429,24.2015081 27.6962428,21.9342546 27.6962428,21.9342546 C27.6962428,21.9342546 28.2753666,18.4380479 29.1201679,16.9779935 C29.9649692,15.5179391 31.7758983,14.8834617 31.7758983,14.8834617 C31.7758983,14.8834617 32.9470392,14.1149197 33.6493819,14.6409095 C34.3517246,15.1668994 34.1946329,16.5330395 34.1946329,16.5330395 C34.1946329,16.5330395 32.9346421,22.8512191 34.9702086,24.2015081 C35.8410867,24.7792035 38.2181439,24.4903901 39.3153401,23.7808983 C40.7826999,22.8320437 40.8828631,21.2616162 40.8828631,21.2616162 C40.8828631,21.2616162 41.3102289,20.2135382 41.8887362,20.1228545 C42.4672434,20.0321707 41.9891125,22.0583055 41.9891125,22.0583055 C41.9891125,22.0583055 41.0392497,24.3253821 40.4025638,24.830509 C39.5173318,25.5328246 37.423359,25.6806329 37.423359,25.6806329 C37.423359,25.6806329 35.8297491,25.6806331 35.6392586,26.346493 C35.4487681,27.0123529 36.8239344,28.3403541 36.8239344,28.3403541 C36.8239344,28.3403541 40.6948109,32.9501374 42.8185525,32.1580873 C44.942294,31.3660372 44.3758806,25.9399745 44.3758806,25.9399745 C44.3758806,25.9399745 44.4038153,22.0285528 44.1956556,20.5908273 C44.0057113,19.2789127 43.5707068,18.2344871 43.1815685,17.6910541 C42.7924302,17.1476211 42.391534,16.7109078 41.5638223,16.7300356 C40.7361105,16.7491634 40.166709,17.8286135 40.166709,17.8286135 C40.166709,17.8286135 37.9341973,21.0280149 37.1938965,20.5114958 C36.4535956,19.9949768 38.8758785,16.9779935 38.8758785,16.9779935 C38.8758785,16.9779935 40.0944633,15.3922525 40.4025638,14.4422 C40.7323166,13.4253807 40.7894383,11.0773782 40.7894383,11.0773782 C40.7894383,11.0773782 40.6845695,7.12137827 41.166336,7.12137827 C41.6481025,7.12137827 41.6481014,10.9329099 41.6481014,10.9329099 C41.6481014,10.9329099 41.3505044,15.1715572 43.3036604,15.1668994 C45.2568165,15.1622416 45.2568172,10.907646 45.2568172,10.907646 C45.2568172,10.907646 45.3467097,8.1925826 45.0313769,6.93841019 C44.6956573,5.60315339 43.9529653,3.8578092 43.3036601,3.13935839 C42.6543549,2.42090757 42.1781282,1.55522748 40.1667094,1.69765999 C38.1552907,1.8400925 37.7323004,4.07474131 37.7323004,4.07474131 C37.7323004,4.07474131 37.1275987,8.13318633 36.7313573,8.60894503 C35.5682491,10.0054646 34.1946335,9.45298718 33.0542515,9.69157603 C31.9138695,9.93016488 29.6729497,10.601208 28.5383884,11.2339514 C27.0889858,12.0422814 25.3023596,14.0147961 25.3023596,14.0147961 L23.8739698,15.9783681 C23.8739698,15.9783681 24.0716581,13.682814 24.7910555,12.6593214 C25.394902,11.800224 27.8437015,10.330598 27.8437015,10.330598 C27.8437015,10.330598 30.0502294,9.24558943 31.2143081,8.78620173 C31.8407351,8.53899086 33.2152186,8.21080227 33.2152186,8.21080227 C33.2152186,8.21080227 34.9664261,7.65097559 35.2205277,7.12137829 C35.4616329,6.61886803 35.3782849,5.7496807 34.7008389,5.1144796 C34.0233929,4.4792785 33.3754517,4.07474131 31.3877345,4.21868051 C29.4000174,4.3626197 25.2217214,7.24200914 25.2217214,7.24200914 C25.2217214,7.24200914 22.9421661,8.40227045 21.146541,10.3305977 C20.2626392,11.2798226 19.6804089,12.648121 19.1846473,13.700437 C17.6817581,16.8905073 19.1846473,18.0508286 19.5301767,18.5558182 C19.8757061,19.0608079 20.0337879,19.6497828 20.1315274,20.1228548 Z M14.9927364,20.8565573 C15.331214,19.9695471 15.8338,18.6025453 16.87728,18.6025453 C17.9207601,18.6025453 18.3825669,20.8565573 18.3825669,20.8565573 C18.3825669,20.8565573 19.0832994,22.7957285 18.82317,23.2110042 C18.5630407,23.6262799 17.0423741,24.7782358 17.0423741,24.7782358 C17.0423741,24.7782358 15.6927486,26.3118954 15.1821,27.168505 C14.4621964,28.3761384 13.3507177,30.9709649 13.3507177,30.9709649 C13.3507177,30.9709649 12.5938239,32.3906703 11.1656525,32.3906703 C9.73748105,32.3906703 10.0672463,30.9030223 10.0672463,30.0027293 C10.0672463,29.501539 11.913606,28.0786951 12.7644213,26.7823322 C13.4419338,25.7500257 13.1637167,25.7445666 13.1637166,24.7428887 C13.1637166,23.7412109 14.6542588,21.7435676 14.9927364,20.8565573 Z M3.94268019,59.8396082 C3.56423376,59.3889221 3.52821123,59.2643748 3.05576243,59.2804319 C2.58331363,59.296489 2.48977007,59.4386826 2.1113805,59.8396082 C1.43349747,60.5578645 1.54970334,62.3015536 1.72245809,63.5684218 C1.88868639,64.7874293 2.33411571,66.6479631 3.12832965,67.2972353 C3.9225436,67.9465075 5.33426979,67.0045295 5.60620181,66.7898314 C5.72374084,66.697031 5.91928312,66.4119363 5.89948233,66.1201772 C5.87347308,65.736938 5.89948233,65.6254394 5.60620176,65.3408848 C5.3129212,65.0563302 4.73595729,65.0634477 4.57487784,64.6272831 C4.39218268,64.1325885 4.57487784,63.1768848 4.57487793,62.5483072 C4.57487801,61.9197296 4.79926787,60.8597053 3.94268019,59.8396082 Z" fill="#000000" sketch:type="MSShapeGroup"/></g><text x="0" y="115" fill="#000000" font-size="5px" font-weight="bold" font-family="'Helvetica Neue', Helvetica, Arial-Unicode, Arial, Sans-serif">Created by Raphy March</text><text x="0" y="120" fill="#000000" font-size="5px" font-weight="bold" font-family="'Helvetica Neue', Helvetica, Arial-Unicode, Arial, Sans-serif">from the Noun Project</text></svg>